<svg width="208" height="264" fill="none" xmlns="http://www.w3.org/2000/svg"><path d="M205.198 58.875c1.431 0 2.592 1.214 2.592 2.713v126.984c0 1.499-1.161 2.714-2.593 2.714H139.58c-1.431 0-2.592 1.214-2.592 2.713v67.038c0 1.499-1.161 2.713-2.592 2.713h-77.21c-1.432 0-2.593-1.214-2.593-2.713v-28.435c0-1.909 1.479-3.457 3.303-3.457h45.092c1.433 0 2.592-1.215 2.592-2.713v-67.038c0-1.499 1.161-2.714 2.593-2.714h65.617c1.432 0 2.592-1.214 2.592-2.713V62.333c0-1.91 1.479-3.458 3.303-3.458h25.513zm-171.2-24.269c-1.43 0-2.591 1.214-2.591 2.713v163.915c0 2.012-1.558 3.642-3.48 3.642H2.592c-1.432 0-2.592-1.215-2.592-2.713V2.713C0 1.215 1.16 0 2.592 0h148.011c1.432 0 2.592 1.215 2.592 2.714v28.25c0 2.012-1.557 3.642-3.479 3.642H33.998z" fill="#00E3A0"/></svg>
